# xmcd CD database file
#
# Track frame offsets:
#	150
#	5332
#	13451
#	22709
#	37822
#	49224
#	57527
#	68416
#	79770
#	90763
#	104525
#	117002
#	132462
#	144617
#	160817
#	172776
#	186232
#	197284
#	209639
#
# Disc length: 2995 seconds
#
# Revision: 2
# Processed by: cddbd v1.5.2PL0 Copyright (c) Steve Scherf et al.
# Submitted via: CDex 1.51
#
DISCID=f20bb113
DTITLE=Festa do Peão - Proibido para menores de 60 anos
DYEAR=2002
DGENRE=Country
TTITLE0=Abertura
TTITLE1=Minha Casa
TTITLE2=Porteiro de Motel
TTITLE3=Foi a minha mãe
TTITLE4=Pinto de Estação
TTITLE5=Compade Mané
TTITLE6=Morena Gostosa
TTITLE7=Contou pra ela
TTITLE8=Puta que o pariu pisa no freio Zé
TTITLE9=Touro de Rodeio
TTITLE10=Ladrão de Mulher
TTITLE11=Loira de Carro Branco
TTITLE12=Casa da Vizinha
TTITLE13=É disso que o velho gosta
TTITLE14=Nós não vive sem mulher
TTITLE15=Nós não vive sem muié
TTITLE16=Meu negócio é mulher
TTITLE17=Peão apaixonado
TTITLE18=Porque não agora
EXTD=YEAR: 2002
EXTT0=
EXTT1=
EXTT2=
EXTT3=
EXTT4=
EXTT5=
EXTT6=
EXTT7=
EXTT8=
EXTT9=
EXTT10=
EXTT11=
EXTT12=
EXTT13=
EXTT14=
EXTT15=
EXTT16=
EXTT17=
EXTT18=
PLAYORDER=
